<svg width="142" height="106" viewBox="0 0 142 106" fill="none" xmlns="http://www.w3.org/2000/svg">
<path d="M81.3585 30.0006C81.3585 30.0006 85.8751 36.2572 86.435 36.8159C86.9949 37.3745 101.665 39.5345 101.665 39.5345L103.307 45.009C103.307 45.009 85.0912 43.7056 83.4115 42.0297C81.7317 40.3538 77.0658 34.3207 77.0658 34.3207L81.3585 30.0006Z" fill="white"/>
<path d="M81.3585 30.0006C81.3585 30.0006 85.8751 36.2572 86.435 36.8159C86.9949 37.3745 103.344 39.5345 103.344 39.5345L104.987 45.009C104.987 45.009 85.1285 43.7056 83.4488 42.0297C81.7691 40.3538 77.1031 34.3207 77.1031 34.3207L81.3585 30.0006Z" stroke="#153144" stroke-width="2.98865" stroke-miterlimit="10" stroke-linecap="round" stroke-linejoin="round"/>
<path d="M46.4945 104C34.1871 104 24.2099 94.0458 24.2099 81.7666C24.2099 69.4875 34.1871 59.5333 46.4945 59.5333C58.8019 59.5333 68.7791 69.4875 68.7791 81.7666C68.7791 94.0458 58.8019 104 46.4945 104Z" fill="white"/>
<path d="M114.468 104C102.161 104 92.1835 94.0458 92.1835 81.7666C92.1835 69.4875 102.161 59.5333 114.468 59.5333C126.775 59.5333 136.753 69.4875 136.753 81.7666C136.753 94.0458 126.775 104 114.468 104Z" fill="white"/>
<path d="M114.468 104C102.161 104 92.1835 94.0458 92.1835 81.7666C92.1835 69.4875 102.161 59.5333 114.468 59.5333C126.775 59.5333 136.753 69.4875 136.753 81.7666C136.753 94.0458 126.775 104 114.468 104Z" stroke="#153144" stroke-width="2.98865" stroke-miterlimit="10" stroke-linecap="round" stroke-linejoin="round"/>
<path d="M114.468 96.5516C122.643 96.5516 129.287 89.9226 129.287 81.7667C129.287 73.6107 122.643 66.9817 114.468 66.9817C106.293 66.9817 99.649 73.6107 99.649 81.7667C99.649 89.9226 106.293 96.5516 114.468 96.5516Z" fill="#90CAF8"/>
<path d="M127.495 88.7681C128.615 86.6826 129.25 84.2991 129.25 81.7667C129.25 76.8135 126.823 72.4562 123.053 69.7748" stroke="#153144" stroke-width="2.24149" stroke-miterlimit="10" stroke-linecap="round" stroke-linejoin="round"/>
<path d="M105.845 74.8397C104.315 76.7391 103.419 79.1225 103.419 81.7667C103.419 83.1446 103.68 84.4481 104.128 85.6398" stroke="#153144" stroke-width="2.24149" stroke-miterlimit="10" stroke-linecap="round" stroke-linejoin="round"/>
<path d="M114.468 81.7667L103.344 45.009" stroke="#153144" stroke-width="2.98865" stroke-miterlimit="10" stroke-linecap="round" stroke-linejoin="round"/>
<path d="M114.468 84.3736C115.886 84.3736 117.081 83.1819 117.081 81.7667C117.081 80.3515 115.886 79.1598 114.468 79.1598C113.049 79.1598 111.855 80.3515 111.855 81.7667C111.855 83.1819 113.049 84.3736 114.468 84.3736Z" fill="#EF2C54"/>
<path d="M114.468 84.3736C115.886 84.3736 117.081 83.1819 117.081 81.7667C117.081 80.3515 115.886 79.1598 114.468 79.1598C113.049 79.1598 111.855 80.3515 111.855 81.7667C111.855 83.1819 113.049 84.3736 114.468 84.3736Z" stroke="#153144" stroke-width="2.98865" stroke-miterlimit="10" stroke-linecap="round" stroke-linejoin="round"/>
<path d="M46.4945 104C34.1871 104 24.2099 94.0458 24.2099 81.7666C24.2099 69.4875 34.1871 59.5333 46.4945 59.5333C58.8019 59.5333 68.7791 69.4875 68.7791 81.7666C68.7791 94.0458 58.8019 104 46.4945 104Z" stroke="#153144" stroke-width="2.98865" stroke-miterlimit="10" stroke-linecap="round" stroke-linejoin="round"/>
<path d="M46.4945 96.5516C54.6692 96.5516 61.3135 89.9226 61.3135 81.7667C61.3135 73.6107 54.6692 66.9817 46.4945 66.9817C38.3197 66.9817 31.6754 73.6107 31.6754 81.7667C31.6754 89.9226 38.3197 96.5516 46.4945 96.5516Z" fill="#90CAF8"/>
<path d="M43.7322 67.2424C36.864 68.5459 31.6754 74.5418 31.6754 81.7667" stroke="#153144" stroke-width="2.24149" stroke-miterlimit="10" stroke-linecap="round" stroke-linejoin="round"/>
<path d="M48.5475 92.6413C51.3471 92.1199 53.7734 90.5185 55.4158 88.3212" stroke="#153144" stroke-width="2.24149" stroke-miterlimit="10" stroke-linecap="round" stroke-linejoin="round"/>
<path d="M103.755 51.8988L83.2621 82.5115L46.3452 82.4743L66.838 51.8615L103.755 51.8988Z" stroke="#153144" stroke-width="2.98865" stroke-miterlimit="10" stroke-linecap="round" stroke-linejoin="round"/>
<path d="M81.7691 25.2709C76.3678 25.2709 71.9892 20.9024 71.9892 15.5136C71.9892 10.1248 76.3678 5.75624 81.7691 5.75624C87.1703 5.75624 91.5489 10.1248 91.5489 15.5136C91.5489 20.9024 87.1703 25.2709 81.7691 25.2709Z" fill="white"/>
<path d="M77.0285 11.5287L84.27 25.2709" stroke="#153144" stroke-width="2.98865" stroke-miterlimit="10" stroke-linecap="round" stroke-linejoin="round"/>
<path d="M81.7691 25.2709C76.3678 25.2709 71.9892 20.9024 71.9892 15.5136C71.9892 10.1248 76.3678 5.75624 81.7691 5.75624C87.1703 5.75624 91.5489 10.1248 91.5489 15.5136C91.5489 20.9024 87.1703 25.2709 81.7691 25.2709Z" stroke="#153144" stroke-width="2.98865" stroke-miterlimit="10" stroke-linecap="round" stroke-linejoin="round"/>
<path d="M69.2644 14.0239C68.4805 10.4487 68.9657 7.17143 70.8695 4.89969C74.9382 0.0582601 84.3447 1.39896 92.2581 8.02799C94.4231 9.85284 96.2522 11.8639 97.7453 13.9867H69.2644V14.0239Z" fill="#CE2951"/>
<path d="M70.8694 4.89971C73.3704 1.92037 77.8497 1.28726 82.7769 2.77693C80.1267 2.9259 77.887 3.85694 76.3939 5.64455C74.6395 7.76733 74.0796 10.7094 74.6395 14.0239H69.2643C68.5178 10.4115 68.9657 7.17146 70.8694 4.89971Z" fill="#AD254C"/>
<path d="M69.2644 14.0239C68.4805 10.4487 68.9657 7.17143 70.8695 4.89969C74.9382 0.0582601 84.3447 1.39896 92.2581 8.02799C94.4231 9.85284 96.2522 11.8639 97.7453 13.9867H69.2644V14.0239Z" stroke="#153144" stroke-width="2.98865" stroke-miterlimit="10" stroke-linecap="round" stroke-linejoin="round"/>
<path d="M77.8496 57.0754C77.8496 57.0754 80.6865 59.3844 81.7317 60.4271C82.7769 61.4699 82.2916 81.0218 82.2916 81.0218H76.9911C76.9911 81.0218 75.1994 65.4548 74.4902 64.7472C73.8183 64.0768 69.9735 61.5071 69.9735 61.5071L77.8496 57.0754Z" fill="white"/>
<path d="M77.8496 57.0754C77.8496 57.0754 80.6865 59.3844 81.7317 60.4271C82.7769 61.4699 82.2916 81.0218 82.2916 81.0218H76.9911C76.9911 81.0218 75.1994 65.4548 74.4902 64.7472C73.8183 64.0768 69.9735 61.5071 69.9735 61.5071L77.8496 57.0754Z" stroke="#153144" stroke-width="2.98865" stroke-miterlimit="10" stroke-linecap="round" stroke-linejoin="round"/>
<path d="M82.2916 29.8889L77.3644 36.22L75.0501 33.5013L66.95 47.1691L48.5475 48.2863C48.5475 48.2863 60.455 29.0323 66.1661 24.824C71.8772 20.6157 74.9008 22.5523 76.2072 23.8185C77.4764 25.0847 82.2916 29.8889 82.2916 29.8889Z" fill="#90CAF8"/>
<path d="M60.2684 47.5415C61.3135 36.369 67.7339 27.1703 76.2819 23.8558C77.663 25.2337 82.2916 29.8517 82.2916 29.8517L77.3644 36.1828L75.0501 33.4641L66.95 47.1319L60.2684 47.5415Z" fill="#74BAE8"/>
<path d="M82.2916 29.8889L77.3644 36.22L75.0501 33.5013L66.95 48.2863H48.5475C48.5475 48.2863 60.455 29.0323 66.1661 24.824C71.8772 20.6157 74.9008 22.5523 76.2072 23.8185C77.4764 25.0847 82.2916 29.8889 82.2916 29.8889Z" stroke="#153144" stroke-width="2.98865" stroke-miterlimit="10" stroke-linecap="round" stroke-linejoin="round"/>
<path d="M74.7142 87.055H87.2562V85.0067C87.2562 83.1819 85.8378 81.6922 84.0461 81.5805L74.7515 81.0591V87.055H74.7142Z" fill="#153144"/>
<path d="M74.7142 87.055H87.2562V85.0067C87.2562 83.1819 85.8378 81.6922 84.0461 81.5805L74.7515 81.0591V87.055H74.7142Z" stroke="#153144" stroke-width="2.98865" stroke-miterlimit="10" stroke-linecap="round" stroke-linejoin="round"/>
<path d="M78.6709 56.4423L70.0109 63.0341C70.0109 63.0341 51.3845 56.703 48.5476 48.2491C62.732 48.2491 66.95 48.2491 66.95 48.2491L78.6709 56.4423Z" fill="#CE2951"/>
<path opacity="0.63" d="M60.6044 48.2491C65.3076 48.2491 66.95 48.2491 66.95 48.2491L78.6709 56.4423L76.5806 58.0437C76.1326 57.9692 75.6847 57.8947 75.1994 57.8202C67.8832 56.3306 62.1721 52.4202 60.6044 48.2491Z" fill="#AD254C"/>
<path d="M78.6709 56.4423L70.0109 63.0341C70.0109 63.0341 51.3845 56.703 48.5476 48.2491C62.732 48.2491 66.95 48.2491 66.95 48.2491L78.6709 56.4423Z" stroke="#153144" stroke-width="2.98865" stroke-miterlimit="10" stroke-linecap="round" stroke-linejoin="round"/>
<path d="M46.3451 85.1184C47.7636 85.1184 48.9581 83.9267 48.9581 82.5115C48.9581 81.0963 47.7636 79.9046 46.3451 79.9046C44.9267 79.9046 43.7322 81.0963 43.7322 82.5115C43.7322 83.9267 44.9267 85.1184 46.3451 85.1184Z" fill="#EF2C54"/>
<path d="M46.3451 85.1184C47.7636 85.1184 48.9581 83.9267 48.9581 82.5115C48.9581 81.0963 47.7636 79.9046 46.3451 79.9046C44.9267 79.9046 43.7322 81.0963 43.7322 82.5115C43.7322 83.9267 44.9267 85.1184 46.3451 85.1184Z" stroke="#153144" stroke-width="2.98865" stroke-miterlimit="10" stroke-linecap="round" stroke-linejoin="round"/>
<path d="M51.4591 5.49556H48.5476" stroke="#153144" stroke-width="2.98865" stroke-miterlimit="10" stroke-linecap="round" stroke-linejoin="round"/>
<path d="M74.7142 5.49556H56.349" stroke="#153144" stroke-width="2.98865" stroke-miterlimit="10" stroke-linecap="round" stroke-linejoin="round"/>
<path d="M36.9387 87.7998H9.68954" stroke="#153144" stroke-width="2.98865" stroke-miterlimit="10" stroke-linecap="round" stroke-linejoin="round"/>
<path d="M4.61298 73.4618H2.00005" stroke="#153144" stroke-width="2.98865" stroke-miterlimit="10" stroke-linecap="round" stroke-linejoin="round"/>
<path d="M19.9546 73.4618H9.68951" stroke="#153144" stroke-width="2.98865" stroke-miterlimit="10" stroke-linecap="round" stroke-linejoin="round"/>
<path d="M50.8991 26.2765H36.6027" stroke="#153144" stroke-width="2.98865" stroke-miterlimit="10" stroke-linecap="round" stroke-linejoin="round"/>
<path d="M127.495 58.0437H140" stroke="#153144" stroke-width="2.98865" stroke-miterlimit="10" stroke-linecap="round" stroke-linejoin="round"/>
<path d="M116.82 51.8615H123.091" stroke="#153144" stroke-width="2.98865" stroke-miterlimit="10" stroke-linecap="round" stroke-linejoin="round"/>
</svg>
