<svg width="141" height="66" viewBox="0 0 141 66" fill="none" xmlns="http://www.w3.org/2000/svg">
<path d="M8.02226 42.9349C7.4586 38.1554 8.25959 27.5343 10.6032 20.4831C12.1459 15.8511 13.5699 9.50795 19.9185 5.99709C25.1398 3.07629 58.9597 0.686549 77.8869 2.60424C88.4482 3.66635 97.1998 13.9629 102.658 22.5188C120.636 25.7936 121.081 25.7936 125.294 27.0918C129.507 28.3604 133.63 31.5762 133.63 36.3852C133.63 39.483 133.63 48.0979 133.63 48.0979H8.52658C8.34859 45.1476 8.20026 45.8557 8.02226 42.9349Z" fill="#4DCBAB"/>
<path opacity="0.49" d="M125.591 26.1772C121.378 24.9085 120.933 24.9085 102.955 21.6042C97.4965 13.0483 88.7449 2.75175 78.1836 1.68964C59.2564 -0.228056 25.4366 2.16169 20.2153 5.08249C18.7913 5.87907 17.6343 6.82317 16.6256 7.82627C16.6256 7.82627 16.6553 7.82627 16.6553 7.79677C21.8766 4.87597 55.6964 2.48623 74.6237 4.40392C84.5619 5.40702 93.6102 14.612 99.1579 22.8138C99.8105 23.7874 100.849 24.4365 102.006 24.643C118.115 27.5933 117.937 27.6228 122.031 28.8619C126.243 30.1306 130.367 33.3464 130.367 38.1554C130.367 40.1321 130.367 44.351 130.367 47.1243H133.927C133.927 47.1243 133.927 38.5094 133.927 35.4116C133.927 30.6616 129.803 27.4458 125.591 26.1772Z" fill="#4DCBAB"/>
<path opacity="0.21" d="M76.0773 20.9551V47.2423" stroke="#72757C" stroke-width="0.891704" stroke-miterlimit="10" stroke-linecap="round"/>
<path opacity="0.21" d="M34.5442 20.9551L33.8619 47.2423" stroke="#72757C" stroke-width="0.891704" stroke-miterlimit="10" stroke-linecap="round"/>
<path opacity="0.2" d="M19.6516 20.483C21.1943 15.8511 22.6183 9.50793 28.9669 5.99707C32.5566 3.99086 49.5851 2.25018 66.0501 1.95515C47.3601 1.60111 24.1906 3.60732 19.9186 5.99707C13.57 9.53743 12.146 15.8511 10.6033 20.483C8.25967 27.5343 7.48834 38.1554 8.02234 42.9348C8.20034 45.8556 8.34867 45.1476 8.52667 48.0979H17.575C17.397 45.1476 17.2486 45.8556 17.0706 42.9348C16.507 38.1554 17.308 27.5343 19.6516 20.483Z" fill="#72757C"/>
<path d="M8.02226 42.9349C7.4586 38.1554 8.25959 27.5343 10.6032 20.4831C12.1459 15.8511 13.5699 9.50795 19.9185 5.99709C25.1398 3.07629 58.9597 0.686548 77.8869 2.60424C87.7955 3.60735 96.1022 12.7238 101.59 20.8961C102.302 21.9287 103.4 22.6663 104.646 22.8728C120.666 25.7936 121.23 25.8526 125.294 27.0623C129.507 28.3309 133.63 31.5467 133.63 36.3557C133.63 39.4535 133.63 48.0684 133.63 48.0684H8.52658C8.34859 45.1476 8.20026 45.8557 8.02226 42.9349Z" stroke="#135677" stroke-width="2.37788" stroke-miterlimit="10" stroke-linecap="round" stroke-linejoin="round"/>
<path d="M76.107 22.6073C73.9116 15.5561 70.1143 9.41944 67.3553 5.55454C71.1823 5.70206 74.5643 5.96758 77.4716 6.29212C86.2529 7.32472 93.4916 15.5856 98.3272 22.9613L76.107 22.6073Z" fill="#FFC88D"/>
<path opacity="0.2" d="M80.5866 16.7657C78.955 13.8154 81.2986 10.275 84.6509 10.5995C85.2739 10.6585 85.8673 10.7176 86.4606 10.8061C86.9649 10.8651 87.4692 10.9536 87.9439 11.0716C84.7993 8.56384 81.2689 6.76416 77.4716 6.32161C74.5643 5.96758 71.1527 5.73155 67.3553 5.58404C70.1143 9.44893 73.9116 15.5856 76.107 22.6368L83.4939 22.7548C82.6039 20.6011 81.5953 18.5949 80.5866 16.7657Z" fill="#FFBF73"/>
<path d="M76.107 22.6073C73.9116 15.5561 70.1143 9.41944 67.3553 5.55454C71.1823 5.70206 74.5643 5.96758 77.4716 6.29212C86.2529 7.32472 93.4916 15.5856 98.3272 22.9613L76.107 22.6073Z" stroke="#135677" stroke-width="2.37788" stroke-miterlimit="10" stroke-linecap="round" stroke-linejoin="round"/>
<path d="M37.5108 22.3123L38.7865 6.61665C45.6988 6.1151 53.3231 5.87908 60.3244 5.90858C61.066 5.90858 61.8077 5.90857 62.5197 5.93807C65.1897 9.24241 69.5803 15.3495 72.1613 22.5188L37.5108 22.3123Z" fill="#FFC88D"/>
<path opacity="0.2" d="M42.8804 14.553C43.0881 11.8387 45.5801 9.68498 48.6951 9.50796C53.8274 9.24243 59.1377 9.12442 64.1513 9.15392C64.4183 9.15392 64.6853 9.15392 64.982 9.15392C64.092 7.88529 63.2613 6.79368 62.5197 5.90859C61.778 5.90859 61.066 5.87908 60.3244 5.87908C53.3231 5.84958 45.6988 6.0856 38.7865 6.58715L37.5108 22.2828L42.2574 22.3123L42.8804 14.553Z" fill="#FFBF73"/>
<path d="M37.5108 22.3123L38.7865 6.61665C45.6988 6.1151 53.3231 5.87908 60.3244 5.90858C61.066 5.90858 61.8077 5.90857 62.5197 5.93807C65.1897 9.24241 69.5803 15.3495 72.1613 22.5188L37.5108 22.3123Z" stroke="#135677" stroke-width="2.37788" stroke-miterlimit="10" stroke-linecap="round" stroke-linejoin="round"/>
<path d="M29.1449 51.9628H7.3697C4.43271 51.9628 2.02972 49.573 2.02972 46.6522C2.02972 43.7314 4.43271 41.3417 7.3697 41.3417H29.1449V51.9628Z" fill="white"/>
<path opacity="0.2" d="M8.3783 48.0684C8.3783 45.1476 10.7813 42.7578 13.7183 42.7578H29.1152V41.3712H7.33997C4.40299 41.3712 2 43.761 2 46.6818C2 49.6026 4.40299 51.9923 7.33997 51.9923H10.1286C9.06064 51.0187 8.3783 49.6025 8.3783 48.0684Z" fill="#72757C"/>
<path d="M29.1449 51.9628H7.3697C4.43271 51.9628 2.02972 49.573 2.02972 46.6522C2.02972 43.7314 4.43271 41.3417 7.3697 41.3417H29.1449V51.9628V51.9628Z" stroke="#135677" stroke-width="2.37788" stroke-miterlimit="10" stroke-linecap="round" stroke-linejoin="round"/>
<path d="M134.52 51.9628H116.691V43.1119H134.52C136.983 43.1119 138.97 45.0886 138.97 47.5373C138.97 49.9861 136.983 51.9628 134.52 51.9628Z" fill="white"/>
<path opacity="0.2" d="M117.848 46.5343H135.707C136.983 46.5343 138.14 47.0948 138.97 47.9504C138.97 47.8029 139 47.6849 139 47.5373C139 45.0886 137.012 43.1119 134.55 43.1119H116.72V51.9628H117.907V46.5343H117.848Z" fill="#72757C"/>
<path d="M134.52 51.9628H116.691V43.1119H134.52C136.983 43.1119 138.97 45.0886 138.97 47.5373C138.97 49.9861 136.983 51.9628 134.52 51.9628Z" stroke="#135677" stroke-width="2.37788" stroke-miterlimit="10" stroke-linecap="round" stroke-linejoin="round"/>
<path d="M93.9959 47.2423H38.9645V51.9628H93.9959V47.2423Z" fill="white"/>
<path opacity="0.2" d="M93.9959 47.2423H38.9645V49.6026H93.9959V47.2423Z" fill="#72757C"/>
<path d="M93.9959 47.2423H38.9645V51.9628H93.9959V47.2423Z" stroke="#135677" stroke-width="2.37788" stroke-miterlimit="10" stroke-linecap="round" stroke-linejoin="round"/>
<path d="M107.316 64C114.607 64 120.518 58.122 120.518 50.8712C120.518 43.6203 114.607 37.7423 107.316 37.7423C100.025 37.7423 94.1146 43.6203 94.1146 50.8712C94.1146 58.122 100.025 64 107.316 64Z" fill="#82818C"/>
<path d="M107.316 64C114.607 64 120.518 58.122 120.518 50.8712C120.518 43.6203 114.607 37.7423 107.316 37.7423C100.025 37.7423 94.1146 43.6203 94.1146 50.8712C94.1146 58.122 100.025 64 107.316 64Z" stroke="#135677" stroke-width="2.37788" stroke-miterlimit="10" stroke-linecap="round" stroke-linejoin="round"/>
<path d="M107.316 57.9814C111.265 57.9814 114.466 54.798 114.466 50.8712C114.466 46.9443 111.265 43.761 107.316 43.761C103.367 43.761 100.166 46.9443 100.166 50.8712C100.166 54.798 103.367 57.9814 107.316 57.9814Z" fill="white"/>
<path d="M107.316 57.9814C111.265 57.9814 114.466 54.798 114.466 50.8712C114.466 46.9443 111.265 43.761 107.316 43.761C103.367 43.761 100.166 46.9443 100.166 50.8712C100.166 54.798 103.367 57.9814 107.316 57.9814Z" stroke="#135677" stroke-width="2.37788" stroke-miterlimit="10" stroke-linecap="round" stroke-linejoin="round"/>
<path d="M107.316 53.0544C108.529 53.0544 109.512 52.0769 109.512 50.8712C109.512 49.6654 108.529 48.6879 107.316 48.6879C106.104 48.6879 105.121 49.6654 105.121 50.8712C105.121 52.0769 106.104 53.0544 107.316 53.0544Z" stroke="#135677" stroke-width="2.37788" stroke-miterlimit="10" stroke-linecap="round" stroke-linejoin="round"/>
<path d="M30.8062 64C38.0973 64 44.0078 58.122 44.0078 50.8712C44.0078 43.6203 38.0973 37.7423 30.8062 37.7423C23.5152 37.7423 17.6046 43.6203 17.6046 50.8712C17.6046 58.122 23.5152 64 30.8062 64Z" fill="#82818C"/>
<path d="M30.8062 64C38.0973 64 44.0078 58.122 44.0078 50.8712C44.0078 43.6203 38.0973 37.7423 30.8062 37.7423C23.5152 37.7423 17.6046 43.6203 17.6046 50.8712C17.6046 58.122 23.5152 64 30.8062 64Z" stroke="#135677" stroke-width="2.37788" stroke-miterlimit="10" stroke-linecap="round" stroke-linejoin="round"/>
<path d="M30.8062 57.9814C34.7548 57.9814 37.9558 54.798 37.9558 50.8712C37.9558 46.9443 34.7548 43.761 30.8062 43.761C26.8576 43.761 23.6566 46.9443 23.6566 50.8712C23.6566 54.798 26.8576 57.9814 30.8062 57.9814Z" fill="white"/>
<path d="M30.8062 57.9814C34.7548 57.9814 37.9558 54.798 37.9558 50.8712C37.9558 46.9443 34.7548 43.761 30.8062 43.761C26.8576 43.761 23.6566 46.9443 23.6566 50.8712C23.6566 54.798 26.8576 57.9814 30.8062 57.9814Z" stroke="#135677" stroke-width="2.37788" stroke-miterlimit="10" stroke-linecap="round" stroke-linejoin="round"/>
<path d="M30.8062 53.0544C32.0186 53.0544 33.0015 52.0769 33.0015 50.8712C33.0015 49.6654 32.0186 48.6879 30.8062 48.6879C29.5937 48.6879 28.6108 49.6654 28.6108 50.8712C28.6108 52.0769 29.5937 53.0544 30.8062 53.0544Z" stroke="#135677" stroke-width="2.37788" stroke-miterlimit="10" stroke-linecap="round" stroke-linejoin="round"/>
<path d="M35.0782 6.32161C27.2165 7.14769 23.1819 8.18029 21.9952 8.88837C17.3376 11.7207 15.9136 16.5002 14.6676 20.7191C14.5193 21.1911 14.4006 21.6337 14.2523 22.0762C14.2226 22.1942 14.1929 22.3122 14.1336 22.4303H33.9805L35.0782 6.32161Z" fill="#FFC88D"/>
<path opacity="0.2" d="M19.2065 22.2532C20.4525 18.0343 21.8468 13.2548 26.5342 10.4225C27.4538 9.86197 30.1238 9.12439 34.9594 8.44582L35.1078 6.32161C27.2461 7.14769 23.2115 8.18029 22.0248 8.88837C17.3672 11.7207 15.9432 16.5002 14.6972 20.7191C14.5489 21.1911 14.4302 21.6337 14.2819 22.0762C14.2522 22.1942 14.2225 22.3122 14.1632 22.4303H19.1175C19.1769 22.3713 19.1769 22.3122 19.2065 22.2532Z" fill="#FFBF73"/>
<path d="M35.0782 6.32161C27.2165 7.14769 23.1819 8.18029 21.9952 8.88837C17.3376 11.7207 15.9136 16.5002 14.6676 20.7191C14.5193 21.1911 14.4006 21.6337 14.2523 22.0762C14.2226 22.1942 14.1929 22.3122 14.1336 22.4303H33.9805L35.0782 6.32161Z" stroke="#135677" stroke-width="2.37788" stroke-miterlimit="10" stroke-linecap="round" stroke-linejoin="round"/>
<path d="M136.033 33.966C136.36 35.9722 134.491 37.6243 131.524 37.8898C128.706 38.1554 125.472 36.9163 124.938 34.9101C124.612 32.9038 127.994 31.1042 130.842 30.8386C133.66 30.5731 135.648 31.9597 136.033 33.966Z" fill="white"/>
<path d="M136.033 33.966C136.36 35.9722 134.491 37.6243 131.524 37.8898C128.706 38.1554 125.472 36.9163 124.938 34.9101C124.612 32.9038 127.994 31.1042 130.842 30.8386C133.66 30.5731 135.648 31.9597 136.033 33.966Z" stroke="#135677" stroke-width="2.37788" stroke-miterlimit="10" stroke-linecap="round" stroke-linejoin="round"/>
<path d="M84.6806 27.7408H79.0439" stroke="#135677" stroke-width="2.37788" stroke-miterlimit="10" stroke-linecap="round" stroke-linejoin="round"/>
<path d="M44.0374 27.7408H38.1041" stroke="#135677" stroke-width="2.37788" stroke-miterlimit="10" stroke-linecap="round" stroke-linejoin="round"/>
</svg>
