<svg width="148" height="79" viewBox="0 0 148 79" fill="none" xmlns="http://www.w3.org/2000/svg">
<path d="M117.743 77.0029C125.263 77.0029 131.386 70.8799 131.386 63.3598C131.386 55.8398 125.263 49.7168 117.743 49.7168C110.223 49.7168 104.1 55.8398 104.1 63.3598C104.1 70.8799 110.223 77.0029 117.743 77.0029Z" fill="#5C3F6B"/>
<path d="M117.743 77.0029C125.263 77.0029 131.386 70.8799 131.386 63.3598C131.386 55.8398 125.263 49.7168 117.743 49.7168C110.223 49.7168 104.1 55.8398 104.1 63.3598C104.1 70.8799 110.223 77.0029 117.743 77.0029Z" stroke="#523160" stroke-width="2.37788" stroke-miterlimit="10" stroke-linecap="round" stroke-linejoin="round"/>
<path d="M117.743 70.4934C121.667 70.4934 124.877 67.2833 124.877 63.3598C124.877 59.4363 121.667 56.2262 117.743 56.2262C113.82 56.2262 110.61 59.4363 110.61 63.3598C110.61 67.2833 113.82 70.4934 117.743 70.4934Z" fill="#FDC858"/>
<path d="M117.743 70.4934C121.667 70.4934 124.877 67.2833 124.877 63.3598C124.877 59.4363 121.667 56.2262 117.743 56.2262C113.82 56.2262 110.61 59.4363 110.61 63.3598C110.61 67.2833 113.82 70.4934 117.743 70.4934Z" stroke="#523160" stroke-width="2.37788" stroke-miterlimit="10" stroke-linecap="round" stroke-linejoin="round"/>
<path d="M117.743 65.708C119.051 65.708 120.091 64.6379 120.091 63.3598C120.091 62.052 119.021 61.0117 117.743 61.0117C116.435 61.0117 115.395 62.0817 115.395 63.3598C115.395 64.6379 116.435 65.708 117.743 65.708Z" fill="#FDC858"/>
<path d="M117.743 65.708C119.051 65.708 120.091 64.6379 120.091 63.3598C120.091 62.052 119.021 61.0117 117.743 61.0117C116.435 61.0117 115.395 62.0817 115.395 63.3598C115.395 64.6379 116.435 65.708 117.743 65.708Z" stroke="#523160" stroke-width="2.37788" stroke-miterlimit="10" stroke-linecap="round" stroke-linejoin="round"/>
<path d="M8.65813 21.8361L11.4521 11.2249C12.5519 6.9744 16.1782 3.88315 20.5475 3.40758C33.0314 2.07002 48.1606 1.29721 65.8164 1.29721C86.0284 1.29721 117.089 2.84283 126.423 3.91287C128.117 4.09121 129.573 5.19098 130.257 6.76633L135.875 19.9041C138.461 24.541 140.036 29.6534 140.482 34.9442L140.601 64.4893L134.329 64.6082C134.359 64.1921 134.388 63.776 134.388 63.3598C134.388 54.1753 126.958 46.7444 117.773 46.7444C108.588 46.7444 101.158 54.1753 101.158 63.3598C101.158 63.8948 101.187 64.4299 101.247 64.9352L57.5532 65.4702C57.6424 64.7866 57.7019 64.0732 57.7019 63.3598C57.7019 54.1753 50.271 46.7444 41.0864 46.7444C31.9019 46.7444 24.471 54.1753 24.471 63.3598C24.471 64.1921 24.5305 64.9946 24.6494 65.7971L7.02333 65.9755V35.182C6.93416 30.6937 7.52863 26.2055 8.65813 21.8361Z" fill="#8E63AD"/>
<g opacity="0.36">
<path d="M137.272 64.4893L137.153 34.9442C136.707 29.6534 135.132 24.541 132.546 19.9041L126.928 6.76633C126.244 5.19098 124.788 4.12094 123.094 3.91287C114.028 2.87255 84.5124 1.38638 64.3005 1.29721C64.8058 1.29721 65.3111 1.29721 65.8164 1.29721C86.0284 1.29721 117.089 2.84283 126.423 3.91287C128.117 4.09121 129.573 5.19098 130.257 6.76633L135.875 19.9041C138.461 24.541 140.036 29.6534 140.482 34.9442L140.601 64.4893L134.329 64.6082C134.329 64.5785 134.329 64.5785 134.329 64.5488L137.272 64.4893Z" fill="#8E63AD"/>
<path d="M21.2608 65.7971C21.1419 64.9946 21.0825 64.1921 21.0825 63.3598C21.0825 54.1752 28.5133 46.7444 37.6979 46.7444C38.2626 46.7444 38.7977 46.7741 39.3624 46.8336C30.9507 47.6658 24.4115 54.74 24.4115 63.3598C24.4115 64.1921 24.471 64.9946 24.5899 65.7971L6.96384 65.9755V65.9457L21.2608 65.7971Z" fill="#8E63AD"/>
<path d="M97.888 64.9054C97.8285 64.4001 97.7988 63.8651 97.7988 63.3301C97.7988 54.1455 105.23 46.7147 114.414 46.7147C114.979 46.7147 115.514 46.7444 116.079 46.8038C107.667 47.6361 101.128 54.7103 101.128 63.3301C101.128 63.8651 101.158 64.4001 101.217 64.9054L57.5235 65.4404V65.4107L97.888 64.9054Z" fill="#8E63AD"/>
</g>
<path opacity="0.36" d="M97.8284 62.2303H58.1179V58.2771H98.6013C98.1851 59.5552 97.9473 60.863 97.8284 62.2303Z" fill="#8E63AD"/>
<g opacity="0.25">
<path d="M8.06367 21.5389L10.8577 10.9276C11.9575 6.67716 15.5837 3.58591 19.9531 3.11034C32.4369 1.77278 47.5662 0.999969 65.2219 0.999969C85.4339 0.999969 116.495 2.54559 125.828 3.61563C127.285 3.79397 128.592 4.62623 129.335 5.87462C129.335 5.87462 129.335 5.36932 129.306 5.36932C119.973 4.29928 88.9115 3.25896 68.6996 3.25896C51.0141 3.25896 35.9146 4.03177 23.4307 5.36932C19.0614 5.8449 15.4648 8.93614 14.3353 13.1866L11.5413 23.7979C10.3821 28.1672 9.81736 32.6555 9.81736 37.1437V65.6485L6.30999 65.6782V34.8847C6.33971 30.3965 6.93417 25.9082 8.06367 21.5389Z" fill="#8E63AD"/>
</g>
<path d="M8.65812 21.8361L11.4521 11.2249C12.5519 6.9744 16.1782 3.88315 20.5475 3.40758C33.0314 2.07002 48.1606 1.29721 65.8164 1.29721C86.0283 1.29721 117.089 2.84283 126.423 3.91287C128.117 4.09121 129.573 5.19098 130.257 6.76633L135.875 19.9041C138.461 24.541 140.036 29.6534 140.482 34.9442L140.601 64.4893L134.329 64.6082C134.359 64.1921 134.388 63.776 134.388 63.3598C134.388 54.1753 126.958 46.7444 117.773 46.7444C108.588 46.7444 101.158 54.1753 101.158 63.3598C101.158 63.8948 101.187 64.4299 101.247 64.9352L57.5532 65.4702C57.6424 64.7866 57.7019 64.0732 57.7019 63.3598C57.7019 54.1753 50.271 46.7444 41.0864 46.7444C31.9019 46.7444 24.471 54.1753 24.471 63.3598C24.471 64.1921 24.5305 64.9946 24.6494 65.7972L7.02333 65.9755V35.182C6.93416 30.6937 7.52863 26.2055 8.65812 21.8361Z" stroke="#523160" stroke-width="2.37788" stroke-miterlimit="10" stroke-linecap="round" stroke-linejoin="round"/>
<path d="M41.027 77.0029C48.547 77.0029 54.67 70.8799 54.67 63.3598C54.67 55.8398 48.547 49.7168 41.027 49.7168C33.5069 49.7168 27.3839 55.8398 27.3839 63.3598C27.3839 70.8799 33.5069 77.0029 41.027 77.0029Z" fill="#5C3F6B"/>
<path d="M41.027 77.0029C48.547 77.0029 54.67 70.8799 54.67 63.3598C54.67 55.8398 48.547 49.7168 41.027 49.7168C33.5069 49.7168 27.3839 55.8398 27.3839 63.3598C27.3839 70.8799 33.5069 77.0029 41.027 77.0029Z" stroke="#523160" stroke-width="2.37788" stroke-miterlimit="10" stroke-linecap="round" stroke-linejoin="round"/>
<path d="M41.027 70.4934C44.9505 70.4934 48.1606 67.2833 48.1606 63.3598C48.1606 59.4363 44.9505 56.2262 41.027 56.2262C37.1035 56.2262 33.8934 59.4363 33.8934 63.3598C33.8934 67.2833 37.1035 70.4934 41.027 70.4934Z" fill="#FDC858"/>
<path d="M41.027 70.4934C44.9505 70.4934 48.1606 67.2833 48.1606 63.3598C48.1606 59.4363 44.9505 56.2262 41.027 56.2262C37.1035 56.2262 33.8934 59.4363 33.8934 63.3598C33.8934 67.2833 37.1035 70.4934 41.027 70.4934Z" stroke="#523160" stroke-width="2.37788" stroke-miterlimit="10" stroke-linecap="round" stroke-linejoin="round"/>
<path d="M41.027 65.708C42.3349 65.708 43.3752 64.6379 43.3752 63.3598C43.3752 62.052 42.3051 61.0117 41.027 61.0117C39.7192 61.0117 38.6789 62.0817 38.6789 63.3598C38.6789 64.6379 39.7192 65.708 41.027 65.708Z" fill="#FDC858"/>
<path d="M41.027 65.708C42.3349 65.708 43.3752 64.6379 43.3752 63.3598C43.3752 62.052 42.3051 61.0117 41.027 61.0117C39.7192 61.0117 38.6789 62.0817 38.6789 63.3598C38.6789 64.6379 39.7192 65.708 41.027 65.708Z" stroke="#523160" stroke-width="2.37788" stroke-miterlimit="10" stroke-linecap="round" stroke-linejoin="round"/>
<path d="M140.601 67.1347H143.84C145.178 67.1347 146.248 66.0647 146.248 64.7271V55.1264C146.248 53.7888 145.178 52.7188 143.84 52.7188H140.601V67.1347Z" fill="white"/>
<path d="M140.601 67.1347H143.84C145.178 67.1347 146.248 66.0647 146.248 64.7271V55.1264C146.248 53.7888 145.178 52.7188 143.84 52.7188H140.601V67.1347Z" stroke="#523160" stroke-width="2.37788" stroke-miterlimit="10" stroke-linecap="round" stroke-linejoin="round"/>
<path d="M140.125 48.8547H141.314C142.206 48.8547 142.919 48.1414 142.919 47.2497V39.8783C142.919 38.9865 142.206 38.2732 141.314 38.2732H140.125C139.233 38.2732 138.52 38.9865 138.52 39.8783V47.2497C138.52 48.1414 139.233 48.8547 140.125 48.8547Z" fill="white"/>
<path d="M140.125 48.8547H141.314C142.206 48.8547 142.919 48.1414 142.919 47.2497V39.8783C142.919 38.9865 142.206 38.2732 141.314 38.2732H140.125C139.233 38.2732 138.52 38.9865 138.52 39.8783V47.2497C138.52 48.1414 139.233 48.8547 140.125 48.8547Z" stroke="#523160" stroke-width="2.37788" stroke-miterlimit="10" stroke-linecap="round" stroke-linejoin="round"/>
<path d="M4.6752 69.4234H17.4563C18.9425 69.4234 20.1314 68.2345 20.1314 66.7483V64.6676C20.1314 63.1815 18.9425 61.9925 17.4563 61.9925H4.6752C3.18903 61.9925 2.00009 63.1815 2.00009 64.6676V66.7483C2.00009 68.2047 3.21875 69.4234 4.6752 69.4234Z" fill="white"/>
<path d="M17.2779 66.5402C17.2779 65.7971 16.6537 65.1729 15.9106 65.1729H2.02975V64.6676C2.02975 63.1815 3.21869 61.9925 4.70487 61.9925H17.486C18.9721 61.9925 20.1611 63.1815 20.1611 64.6676V66.7483C20.1611 68.2345 18.9721 69.4234 17.486 69.4234H17.2779V66.5402Z" fill="#D8D8D8"/>
<path d="M4.6752 69.4234H17.4563C18.9425 69.4234 20.1314 68.2345 20.1314 66.7483V64.6676C20.1314 63.1815 18.9425 61.9925 17.4563 61.9925H4.6752C3.18903 61.9925 2.00009 63.1815 2.00009 64.6676V66.7483C2.00009 68.2047 3.21875 69.4234 4.6752 69.4234Z" stroke="#523160" stroke-width="2.37788" stroke-miterlimit="10" stroke-linecap="round" stroke-linejoin="round"/>
<path d="M26.3138 28.732H40.0758C41.6511 28.732 42.9293 27.4539 42.9293 25.8785V11.9976C42.9293 10.4223 41.6511 9.1442 40.0758 9.1442H31.7235C28.4242 9.1442 25.6302 11.5518 25.1249 14.8214L23.5198 25.4327C23.2226 27.1863 24.5601 28.732 26.3138 28.732Z" fill="#FDC858"/>
<path opacity="0.56" d="M37.1034 15.4158C37.1034 13.8405 35.8253 12.5624 34.25 12.5624H25.8977C27.0569 10.5115 29.2565 9.17392 31.7235 9.17392H40.0758C41.6511 9.17392 42.9293 10.452 42.9293 12.0274V25.9082C42.9293 27.4836 41.6511 28.7617 40.0758 28.7617H37.1034V15.4158Z" fill="#FDC858"/>
<path d="M26.3138 28.732H40.0758C41.6511 28.732 42.9293 27.4539 42.9293 25.8785V11.9976C42.9293 10.4223 41.6511 9.1442 40.0758 9.1442H31.7235C28.4242 9.1442 25.6302 11.5518 25.1249 14.8214L23.5198 25.4327C23.2226 27.1863 24.5601 28.732 26.3138 28.732Z" stroke="#523160" stroke-width="2.37788" stroke-miterlimit="10" stroke-linecap="round" stroke-linejoin="round"/>
<path d="M52.0841 28.4347H82.4615C84.0368 28.4347 85.3149 27.1566 85.3149 25.5813V11.7004C85.3149 10.1251 84.0368 8.84697 82.4615 8.84697H52.0841C50.5088 8.84697 49.2306 10.1251 49.2306 11.7004V25.5813C49.2604 27.1566 50.5088 28.4347 52.0841 28.4347Z" fill="#FDC858"/>
<path opacity="0.56" d="M79.8161 14.7619C79.8161 13.1866 78.538 11.9085 76.9626 11.9085H49.2604V11.7004C49.2604 10.1251 50.5385 8.84697 52.1138 8.84697H82.4615C84.0368 8.84697 85.3149 10.1251 85.3149 11.7004V25.5813C85.3149 27.1566 84.0368 28.4347 82.4615 28.4347H79.7864V14.7619H79.8161Z" fill="#FDC858"/>
<path d="M52.0841 28.4347H82.4615C84.0368 28.4347 85.3149 27.1566 85.3149 25.5813V11.7004C85.3149 10.1251 84.0368 8.84697 82.4615 8.84697H52.0841C50.5088 8.84697 49.2306 10.1251 49.2306 11.7004V25.5813C49.2604 27.1566 50.5088 28.4347 52.0841 28.4347Z" stroke="#523160" stroke-width="2.37788" stroke-miterlimit="10" stroke-linecap="round" stroke-linejoin="round"/>
<path d="M99.1364 28.732H127.76C129.365 28.732 130.524 26.9486 130.078 25.1354L126.779 11.2546C126.482 10.0359 125.531 9.17392 124.461 9.17392H99.1364C97.7988 9.17392 96.7288 10.452 96.7288 12.0274V25.9082C96.699 27.4539 97.7988 28.732 99.1364 28.732Z" fill="#FDC858"/>
<path opacity="0.56" d="M124.728 28.0483L121.429 14.1675C121.132 12.9488 120.181 12.0868 119.11 12.0868H96.7287V11.9976C96.7287 10.4223 97.7988 9.1442 99.1363 9.1442H124.461C125.531 9.1442 126.482 10.0062 126.779 11.2248L130.078 25.1057C130.495 26.9188 129.365 28.7022 127.76 28.7022H124.817C124.788 28.4942 124.758 28.2861 124.728 28.0483Z" fill="#FDC858"/>
<path d="M99.1364 28.732H127.76C129.365 28.732 130.524 26.9486 130.078 25.1354L126.779 11.2546C126.482 10.0359 125.531 9.17392 124.461 9.17392H99.1364C97.7988 9.17392 96.7288 10.452 96.7288 12.0274V25.9082C96.699 27.4539 97.7988 28.732 99.1364 28.732Z" stroke="#523160" stroke-width="2.37788" stroke-miterlimit="10" stroke-linecap="round" stroke-linejoin="round"/>
<path opacity="0.48" d="M96.1937 2.69421C92.8052 2.69421 90.0707 5.42877 90.0707 8.81724V65.0541" stroke="#523160" stroke-width="0.594469" stroke-miterlimit="10" stroke-linecap="round" stroke-linejoin="round"/>
<path d="M104.1 35.8656H95.1832" stroke="#523160" stroke-width="2.37788" stroke-miterlimit="10" stroke-linecap="round" stroke-linejoin="round"/>
<path d="M57.8207 35.1819H50.2115" stroke="#523160" stroke-width="2.37788" stroke-miterlimit="10" stroke-linecap="round" stroke-linejoin="round"/>
<path d="M6.16141 55.8398H7.32062V27.4539H6.16141C4.19966 27.4539 2.5946 29.0589 2.5946 31.0207V52.273C2.5946 54.2347 4.19966 55.8398 6.16141 55.8398Z" fill="#D8D8D8"/>
<path d="M6.16141 55.8398H7.32062V27.4539H6.16141C4.19966 27.4539 2.5946 29.0589 2.5946 31.0207V52.273C2.5946 54.2347 4.19966 55.8398 6.16141 55.8398Z" stroke="#523160" stroke-width="2.37788" stroke-miterlimit="10" stroke-linecap="round" stroke-linejoin="round"/>
<path d="M20.1314 12.1463H16.5349" stroke="#523160" stroke-width="2.37788" stroke-miterlimit="10" stroke-linecap="round" stroke-linejoin="round"/>
<path d="M18.6452 17.2587H15.0487" stroke="#523160" stroke-width="2.37788" stroke-miterlimit="10" stroke-linecap="round" stroke-linejoin="round"/>
<path d="M17.2482 22.3414H13.6516" stroke="#523160" stroke-width="2.37788" stroke-miterlimit="10" stroke-linecap="round" stroke-linejoin="round"/>
<path d="M16.6537 27.4539H13.0274" stroke="#523160" stroke-width="2.37788" stroke-miterlimit="10" stroke-linecap="round" stroke-linejoin="round"/>
<path d="M60.1094 66.8969H98.5419C100.147 66.8969 101.425 65.6188 101.425 64.0137C101.425 62.4086 100.147 61.1305 98.5419 61.1305H60.1094C58.5044 61.1305 57.2262 62.4086 57.2262 64.0137C57.2262 65.589 58.5044 66.8969 60.1094 66.8969Z" fill="white"/>
<path d="M60.1094 66.8969H98.5419C100.147 66.8969 101.425 65.6188 101.425 64.0137C101.425 62.4086 100.147 61.1305 98.5419 61.1305H60.1094C58.5044 61.1305 57.2262 62.4086 57.2262 64.0137C57.2262 65.589 58.5044 66.8969 60.1094 66.8969Z" fill="white"/>
<path d="M57.2262 61.1305H101.425V64.0137H57.2262V61.1305Z" fill="#D8D8D8"/>
<path d="M60.1094 66.8969H98.5419C100.147 66.8969 101.425 65.6188 101.425 64.0137C101.425 62.4086 100.147 61.1305 98.5419 61.1305H60.1094C58.5044 61.1305 57.2262 62.4086 57.2262 64.0137C57.2262 65.589 58.5044 66.8969 60.1094 66.8969Z" stroke="#523160" stroke-width="2.37788" stroke-miterlimit="10" stroke-linecap="round" stroke-linejoin="round"/>
<path d="M122.113 21.3605L116.287 15.505" stroke="#523160" stroke-width="1.18894" stroke-miterlimit="10" stroke-linecap="round" stroke-linejoin="round"/>
<path d="M117.179 21.8955L109.332 13.9891" stroke="#523160" stroke-width="1.18894" stroke-miterlimit="10" stroke-linecap="round" stroke-linejoin="round"/>
<path d="M76.8438 20.6769L71.0477 14.7917" stroke="#523160" stroke-width="1.18894" stroke-miterlimit="10" stroke-linecap="round" stroke-linejoin="round"/>
<path d="M71.9096 21.2119L64.0626 13.3055" stroke="#523160" stroke-width="1.18894" stroke-miterlimit="10" stroke-linecap="round" stroke-linejoin="round"/>
<path d="M39.1544 21.2417L34.3689 16.3967" stroke="#523160" stroke-width="1.18894" stroke-miterlimit="10" stroke-linecap="round" stroke-linejoin="round"/>
<path d="M35.0823 21.6875L28.6323 15.1483" stroke="#523160" stroke-width="1.18894" stroke-miterlimit="10" stroke-linecap="round" stroke-linejoin="round"/>
</svg>
